<?xml version="1.0" encoding="UTF-8"?>
<svg width="65px" height="65px" viewBox="0 0 65 65" version="1.1" xmlns="http://www.w3.org/2000/svg" xmlns:xlink="http://www.w3.org/1999/xlink">
    <defs>
        <linearGradient x1="0.00957854406%" y1="50.0137931%" x2="100.009579%" y2="50.0137931%" id="linearGradient-1">
            <stop stop-color="#564B9B" offset="0.1181891%"></stop>
            <stop stop-color="#3CB7C2" offset="100%"></stop>
        </linearGradient>
    </defs>
    <g id="Web-Design" stroke="none" stroke-width="1" fill="none" fill-rule="evenodd">
        <g id="Work-in-progress" transform="translate(-40.000000, -30.000000)" fill-rule="nonzero">
            <g id="adapt_square_gradientone" transform="translate(40.000000, 30.000000)">
                <rect id="Rectangle-path" fill="url(#linearGradient-1)" x="0.223282443" y="0.0248091603" width="64.5038168" height="64.5038168"></rect>
                <path d="M13.8683206,28.1087786 C11.2385496,28.1087786 9.08015267,30.3912214 9.08015267,33.1450382 C9.08015267,35.898855 11.2385496,38.1812977 13.8683206,38.1812977 C14.8854962,38.1812977 15.8034351,37.8587786 16.5973282,37.2881679 L16.5973282,38.0572519 L18.6564885,38.0572519 L18.6564885,33.1450382 C18.6564885,30.3912214 16.4980916,28.1087786 13.8683206,28.1087786 Z M13.8683206,35.9732824 C12.3549618,35.9732824 11.139313,34.7080153 11.139313,33.1450382 C11.139313,31.5572519 12.3549618,30.3167939 13.8683206,30.3167939 C15.3816794,30.3167939 16.5973282,31.5820611 16.5973282,33.1450382 C16.5725191,34.6832061 15.3568702,35.9732824 13.8683206,35.9732824 Z M34.5591603,28.1087786 C31.9293893,28.1087786 29.7709924,30.3416031 29.7709924,33.1450382 C29.7709924,35.898855 31.9293893,38.1812977 34.5591603,38.1812977 C35.5763359,38.1812977 36.4942748,37.8587786 37.2881679,37.2881679 L37.2881679,38.0572519 L39.3473282,38.0572519 L39.3473282,33.1450382 C39.3473282,30.3912214 37.1889313,28.1087786 34.5591603,28.1087786 Z M34.5591603,35.9732824 C33.0458015,35.9732824 31.8301527,34.7080153 31.8301527,33.1450382 C31.8301527,31.5572519 33.0458015,30.3167939 34.5591603,30.3167939 C36.0725191,30.3167939 37.2881679,31.5820611 37.2881679,33.1450382 C37.2385496,34.6832061 36.0229008,35.9732824 34.5591603,35.9732824 Z M26.9179389,29.0019084 C26.148855,28.4312977 25.2061069,28.1087786 24.1889313,28.1087786 C21.5591603,28.1087786 19.4007634,30.3416031 19.4007634,33.1450382 C19.4007634,35.898855 21.5591603,38.1812977 24.1889313,38.1812977 C26.8187023,38.1812977 28.9770992,35.9484733 28.9770992,33.1450382 L28.9770992,24.2881679 L26.9179389,24.2881679 L26.9179389,29.0019084 Z M24.2137405,35.9732824 C22.7003817,35.9732824 21.4847328,34.7080153 21.4847328,33.1450382 C21.4847328,31.5820611 22.7003817,30.3167939 24.2137405,30.3167939 C25.7270992,30.3167939 26.9427481,31.5820611 26.9427481,33.1450382 C26.9179389,34.6832061 25.7022901,35.9732824 24.2137405,35.9732824 Z M44.8549618,28.1087786 C42.2251908,28.1087786 40.0667939,30.3416031 40.0667939,33.1450382 L40.0667939,40.5381679 L42.1259542,40.5381679 L42.1259542,37.2881679 C42.8950382,37.8587786 43.8377863,38.1812977 44.8549618,38.1812977 C47.4847328,38.1812977 49.6431298,35.9484733 49.6431298,33.1450382 C49.6431298,30.3912214 47.4847328,28.1087786 44.8549618,28.1087786 Z M44.8549618,35.9732824 C43.3416031,35.9732824 42.1259542,34.7080153 42.1259542,33.1450382 C42.1259542,31.5572519 43.3416031,30.3167939 44.8549618,30.3167939 C46.3683206,30.3167939 47.5839695,31.5820611 47.5839695,33.1450382 C47.5839695,34.6832061 46.3683206,35.9732824 44.8549618,35.9732824 Z M55.2003817,35.9732824 C55.2003817,35.9732824 54.480916,35.9732824 53.7862595,35.601145 C52.8931298,35.1545802 52.4961832,34.3358779 52.4961832,33.120229 L52.4961832,30.2919847 L54.2824427,30.2919847 L54.2824427,28.1087786 L52.4961832,28.1087786 L52.4961832,24.2881679 L50.4370229,24.2881679 L50.4370229,33.1450382 C50.4370229,35.1793893 51.2805344,36.7175573 52.8683206,37.5610687 C54.009542,38.1812977 55.101145,38.1812977 55.2251908,38.1812977 L56.1679389,38.1812977 L56.1679389,35.9732824 L55.2003817,35.9732824 Z" id="Shape" fill="#FFFFFF"></path>
            </g>
        </g>
    </g>
</svg>