<?xml version="1.0" encoding="utf-8"?>
<!-- Generator: Adobe Illustrator 21.0.2, SVG Export Plug-In . SVG Version: 6.00 Build 0)  -->
<svg version="1.1" id="Layer_1" xmlns="http://www.w3.org/2000/svg" xmlns:xlink="http://www.w3.org/1999/xlink" x="0px" y="0px"
	 viewBox="0 0 274 68.7" style="enable-background:new 0 0 274 68.7;" xml:space="preserve">
<style type="text/css">
	.st0{fill:#3F3182;}
</style>
<path class="st0" d="M63,49.8h-6.5L68,23h11l2.7,13.4c4.1-8.4,4.7-17,0.8-24C74.4-2.2,50-4.2,27.9,8C5.9,20.1-5.5,41.8,2.6,56.4
	c3.9,7,11.6,11.1,21.1,12.1c10.1,1,22.1-1.5,33.5-7.7c8-4.4,14.6-10,19.3-16.1H65.4L63,49.8z M30.4,33.9l-0.7,4.8l-10.9,0L18,44.8
	l11.3,0l-0.6,4.9l-17.5,0L14.9,23l16.2,0l0.2,4.7l-10.9,0l-0.8,6.1L30.4,33.9z M38,49.8L36.1,23l6.6,0l1,21.6l2.3,0L54,23h6.8
	L50,49.8H38z"/>
<polygon class="st0" points="72.5,27.7 67.6,39.8 75.9,39.8 74.2,27.7 "/>
<path class="st0" d="M113.4,23.3h2.8c3.2,0,5,1.7,5,5.1c0,3.4-1.9,5.2-5,5.2h-2.8V23.3z M116.1,32.1c2.1,0,3.3-1.2,3.3-3.7
	c0-2.5-1.2-3.6-3.3-3.6h-0.8v7.4H116.1z"/>
<path class="st0" d="M128.1,30.8h-3.5l-0.8,2.8h-1.9l3.4-10.3h2.2l3.4,10.3h-1.9L128.1,30.8z M127.7,29.4l-0.4-1.3
	c-0.3-1.1-0.6-2.3-0.9-3.4h-0.1c-0.3,1.2-0.6,2.3-0.9,3.4l-0.4,1.3H127.7z"/>
<path class="st0" d="M132.5,23.3h1.9l3.2,5.8l1.1,2.2h0.1c-0.1-1.1-0.2-2.4-0.2-3.5v-4.5h1.7v10.3h-1.9l-3.2-5.8l-1.1-2.2H134
	c0.1,1.1,0.2,2.3,0.2,3.5v4.5h-1.7V23.3z"/>
<path class="st0" d="M143.1,23.3h2l1.9,5.1l0.7,2h0.1l0.7-2l1.8-5.1h2v10.3h-1.7v-4.7c0-1,0.1-2.3,0.2-3.3h-0.1l-0.8,2.4l-1.8,4.7
	h-0.8l-1.8-4.7l-0.8-2.4h-0.1c0.1,0.9,0.2,2.3,0.2,3.3v4.7h-1.7V23.3z"/>
<path class="st0" d="M159.9,30.8h-3.5l-0.8,2.8h-1.9l3.4-10.3h2.1l3.4,10.3h-1.9L159.9,30.8z M159.5,29.4l-0.4-1.3
	c-0.3-1.1-0.6-2.3-0.9-3.4h-0.1c-0.3,1.2-0.6,2.3-0.9,3.4l-0.4,1.3H159.5z"/>
<path class="st0" d="M170,33.6l-2.2-4h-1.6v4h-1.8V23.3h3.5c2.2,0,3.8,0.8,3.8,3.1c0,1.6-0.8,2.5-2.1,3l2.5,4.3H170z M166.2,28.1
	h1.5c1.4,0,2.2-0.6,2.2-1.8c0-1.2-0.8-1.6-2.2-1.6h-1.5V28.1z"/>
<polygon class="st0" points="174.2,23.3 176.1,23.3 176.1,28 176.1,28 179.8,23.3 181.8,23.3 178.6,27.3 182.3,33.6 180.3,33.6 
	177.5,28.7 176.1,30.6 176.1,33.6 174.2,33.6 "/>
<path class="st0" d="M184.1,31c0.7,0.7,1.7,1.2,2.7,1.2c1.2,0,1.8-0.5,1.8-1.3c0-0.9-0.7-1.1-1.6-1.5l-1.4-0.6
	c-1-0.4-2.1-1.2-2.1-2.8c0-1.6,1.5-2.9,3.5-2.9c1.2,0,2.4,0.5,3.2,1.3l-0.9,1.2c-0.6-0.6-1.4-0.9-2.2-0.9c-1,0-1.6,0.5-1.6,1.2
	c0,0.8,0.8,1.1,1.6,1.5l1.4,0.6c1.2,0.5,2.1,1.3,2.1,2.8c0,1.7-1.4,3.1-3.7,3.1c-1.4,0-2.7-0.6-3.7-1.5L184.1,31z"/>
<polygon class="st0" points="113.4,39.1 119.7,39.1 119.7,40.6 115.3,40.6 115.3,43.3 119,43.3 119,44.8 115.3,44.8 115.3,47.9 
	119.8,47.9 119.8,49.4 113.4,49.4 "/>
<path class="st0" d="M121.1,39.1h1.9l1.5,5.2c0.3,1.2,0.6,2.2,0.9,3.4h0.1c0.3-1.2,0.6-2.2,0.9-3.4l1.4-5.2h1.9l-3.2,10.3h-2.2
	L121.1,39.1z"/>
<path class="st0" d="M135.6,46.6h-3.5l-0.8,2.8h-1.9l3.4-10.3h2.2l3.4,10.3h-1.9L135.6,46.6z M135.2,45.2l-0.4-1.3
	c-0.3-1.1-0.6-2.3-0.9-3.4h-0.1c-0.3,1.2-0.6,2.3-0.9,3.4l-0.4,1.3H135.2z"/>
<polygon class="st0" points="140.2,39.1 142,39.1 142,47.9 146.3,47.9 146.3,49.4 140.2,49.4 "/>
<path class="st0" d="M147.5,39.1h1.8V45c0,2.2,0.9,3,2.1,3c1.3,0,2.1-0.7,2.1-3v-5.9h1.8v5.8c0,3.4-1.5,4.7-3.9,4.7
	c-2.4,0-3.9-1.3-3.9-4.7V39.1z"/>
<polygon class="st0" points="157.8,39.1 164,39.1 164,40.6 159.6,40.6 159.6,43.3 163.3,43.3 163.3,44.8 159.6,44.8 159.6,47.9 
	164.2,47.9 164.2,49.4 157.8,49.4 "/>
<path class="st0" d="M172.1,49.4l-2.2-4h-1.6v4h-1.8V39.1h3.5c2.2,0,3.8,0.8,3.8,3.1c0,1.6-0.8,2.5-2.1,3l2.5,4.3H172.1z
	 M168.3,43.9h1.5c1.4,0,2.2-0.6,2.2-1.8c0-1.2-0.8-1.6-2.2-1.6h-1.5V43.9z"/>
<polygon class="st0" points="176.5,39.1 178.3,39.1 178.3,43.7 178.3,49.4 176.5,49.4 "/>
<path class="st0" d="M181.3,39.1h1.9l3.2,5.8l1.1,2.2h0.1c-0.1-1.1-0.2-2.4-0.2-3.5v-4.5h1.7v10.3h-1.9l-3.2-5.8l-1.1-2.2h-0.1
	c0.1,1.1,0.2,2.3,0.2,3.5v4.5h-1.7V39.1z"/>
<path class="st0" d="M195.9,38.9c1.4,0,2.4,0.7,3.1,1.3l-1,1.1c-0.5-0.5-1.1-0.9-2.1-0.9c-1.8,0-3.1,1.4-3.1,3.8
	c0,2.4,1.1,3.8,3.2,3.8c0.6,0,1.1-0.2,1.5-0.5v-2.2h-1.9v-1.5h3.6v4.6c-0.7,0.7-1.9,1.2-3.3,1.2c-2.8,0-4.8-1.9-4.8-5.3
	C190.9,40.9,193.1,38.9,195.9,38.9"/>
<path class="st0" d="M201.9,46.8c0.7,0.7,1.7,1.2,2.7,1.2c1.2,0,1.8-0.5,1.8-1.3c0-0.9-0.7-1.1-1.6-1.5l-1.4-0.6
	c-1-0.4-2.1-1.2-2.1-2.8c0-1.6,1.5-2.9,3.5-2.9c1.2,0,2.4,0.5,3.2,1.3l-0.9,1.2c-0.6-0.6-1.4-0.9-2.2-0.9c-1,0-1.6,0.5-1.6,1.2
	c0,0.8,0.8,1.1,1.6,1.5l1.4,0.6c1.2,0.5,2.1,1.3,2.1,2.8c0,1.7-1.4,3.1-3.7,3.1c-1.4,0-2.7-0.6-3.7-1.5L201.9,46.8z"/>
<polygon class="st0" points="210.8,39.1 212.6,39.1 212.6,42.4 212.6,49.4 210.8,49.4 "/>
<path class="st0" d="M215.7,39.1h1.9l3.2,5.8l1.1,2.2h0.1c-0.1-1.1-0.2-2.4-0.2-3.5v-4.5h1.7v10.3h-1.9l-3.2-5.8l-1.1-2.2h-0.1
	c0.1,1.1,0.2,2.3,0.2,3.5v4.5h-1.7V39.1z"/>
<path class="st0" d="M226.4,46.8c0.7,0.7,1.7,1.2,2.7,1.2c1.2,0,1.8-0.5,1.8-1.3c0-0.9-0.7-1.1-1.6-1.5l-1.4-0.6
	c-1-0.4-2.1-1.2-2.1-2.8c0-1.6,1.5-2.9,3.5-2.9c1.2,0,2.4,0.5,3.2,1.3l-0.9,1.2c-0.6-0.6-1.4-0.9-2.2-0.9c-1,0-1.6,0.5-1.6,1.2
	c0,0.8,0.8,1.1,1.6,1.5l1.4,0.6c1.2,0.5,2.1,1.3,2.1,2.8c0,1.7-1.4,3.1-3.7,3.1c-1.4,0-2.7-0.6-3.7-1.5L226.4,46.8z"/>
<polygon class="st0" points="236.6,40.6 233.7,40.6 233.7,39.1 241.5,39.1 241.5,40.6 238.5,40.6 238.5,49.4 236.6,49.4 "/>
<polygon class="st0" points="243.4,39.1 245.2,39.1 245.2,42.6 245.2,49.4 243.4,49.4 "/>
<polygon class="st0" points="250.2,40.6 247.2,40.6 247.2,39.1 255,39.1 255,40.6 252,40.6 252,49.4 250.2,49.4 "/>
<path class="st0" d="M256.6,39.1h1.8V45c0,2.2,0.9,3,2.1,3c1.3,0,2.1-0.7,2.1-3v-5.9h1.8v5.8c0,3.4-1.5,4.7-3.9,4.7
	c-2.4,0-3.9-1.3-3.9-4.7V39.1z"/>
<polygon class="st0" points="269.2,40.6 266.2,40.6 266.2,39.1 274,39.1 274,40.6 271,40.6 271,49.4 269.2,49.4 "/>
</svg>
