<?xml version="1.0" standalone="no"?>
<!DOCTYPE svg PUBLIC "-//W3C//DTD SVG 20010904//EN"
 "http://www.w3.org/TR/2001/REC-SVG-20010904/DTD/svg10.dtd">
<svg version="1.0" xmlns="http://www.w3.org/2000/svg"
 width="165.000000pt" height="165.000000pt" viewBox="0 0 165.000000 165.000000"
 preserveAspectRatio="xMidYMid meet">
<metadata>
Created by potrace 1.11, written by Peter Selinger 2001-2013
</metadata>
<g transform="translate(0.000000,165.000000) scale(0.100000,-0.100000)"
fill="#000000" stroke="none">
<path d="M0 825 l0 -825 825 0 825 0 0 825 0 825 -825 0 -825 0 0 -825z m728
81 c-3 -154 -14 -180 -85 -205 -51 -18 -87 -9 -130 34 -26 26 -33 41 -33 74 0
54 17 87 57 113 29 17 44 19 89 14 l54 -6 0 55 c0 52 1 55 26 55 l26 0 -4
-134z m622 84 c0 -47 2 -50 25 -50 20 0 25 -5 25 -25 0 -20 -5 -25 -25 -25
-23 0 -25 -3 -25 -48 0 -59 15 -82 60 -91 28 -5 36 -12 38 -34 3 -23 0 -27
-23 -27 -42 0 -94 30 -113 64 -12 23 -17 64 -20 159 l-4 127 31 0 c31 0 31 -1
31 -50z m-953 -70 c44 -26 54 -50 60 -141 5 -69 4 -79 -12 -85 -10 -4 -25 -3
-34 3 -10 7 -25 7 -44 1 -63 -23 -137 20 -156 89 -30 106 90 192 186 133z
m543 4 c46 -28 60 -63 60 -153 0 -79 -1 -81 -24 -81 -13 0 -26 5 -28 10 -2 7
-15 6 -36 -2 -26 -10 -40 -10 -74 2 -94 33 -117 141 -44 207 28 26 44 33 77
33 22 0 53 -7 69 -16z m281 -7 c115 -77 21 -264 -111 -219 l-30 11 0 -40 c0
-37 -2 -39 -31 -39 l-31 0 4 114 c2 97 6 119 24 143 43 57 116 70 175 30z"/>
<path d="M555 865 c-30 -29 -32 -68 -5 -95 26 -26 81 -26 103 -2 24 26 21 77
-5 102 -29 27 -64 25 -93 -5z"/>
<path d="M286 869 c-19 -15 -26 -30 -26 -53 0 -42 26 -66 73 -66 41 0 67 27
67 71 0 30 -40 69 -70 69 -10 0 -29 -9 -44 -21z"/>
<path d="M839 880 c-9 -5 -22 -23 -29 -40 -11 -28 -11 -34 7 -58 29 -40 83
-42 112 -5 48 60 -24 142 -90 103z"/>
<path d="M1106 869 c-52 -41 -25 -119 42 -119 66 0 94 69 47 115 -30 30 -54
31 -89 4z"/>
</g>
</svg>
