<?xml version="1.0" encoding="utf-8"?>
<!-- Generator: Adobe Illustrator 21.0.0, SVG Export Plug-In . SVG Version: 6.00 Build 0)  -->
<svg version="1.1" id="Logo" xmlns="http://www.w3.org/2000/svg" xmlns:xlink="http://www.w3.org/1999/xlink" x="0px" y="0px"
	 viewBox="0 0 230 146.8" style="enable-background:new 0 0 230 146.8;" xml:space="preserve">
<style type="text/css">
	.st0{fill:url(#SVGID_1_);}
	.st1{fill:url(#Boks_1_);}
	.st2{fill:#027C72;}
	.st3{fill:#FFFFFF;}
</style>
<linearGradient id="SVGID_1_" gradientUnits="userSpaceOnUse" x1="17.7339" y1="11.05" x2="17.7339" y2="7.4045">
	<stop  offset="0" style="stop-color:#FFFFFF"/>
	<stop  offset="1" style="stop-color:#D7DDE4"/>
</linearGradient>
<line class="st0" x1="16.1" y1="7.4" x2="19.4" y2="11.1"/>
<linearGradient id="Boks_1_" gradientUnits="userSpaceOnUse" x1="115.0219" y1="-1.3479" x2="115.0219" y2="146.7502">
	<stop  offset="0" style="stop-color:#7AC6C2"/>
	<stop  offset="0.2592" style="stop-color:#74C4BF"/>
	<stop  offset="0.5367" style="stop-color:#63BDB6"/>
	<stop  offset="0.8218" style="stop-color:#41B2A8"/>
	<stop  offset="1" style="stop-color:#07A99D"/>
</linearGradient>
<path id="Boks" class="st1" d="M0-0.9v142.6c0,2.8,2.2,5,5,5h220c2.8,0,5-2.2,5-5V-1.1C193.6-1.3,109.3-1.7,0-0.9z"/>
<path id="d_1_" class="st2" d="M63.9,45.6v16.9c-2.5-1.1-5.3-1.8-8.2-1.8c-11,0-19.9,8.9-19.8,19.9c0,10.9,8.9,19.8,19.9,19.8h0
	c2.9,0,5.6-0.6,8.2-1.8v1.3h13.8V45.6H63.9z M61.7,86.9c0,0-3.8,2.3-5,4.5c-1.2-2.1-5-4.5-5-4.5c-6.9-3.7-6.4-8.1-6.4-8.1
	c0.4-6.3,5.8-6.1,5.8-6.1c3.8,0,5.5,3.1,5.5,3.1h0.1c0,0,1.7-3.1,5.5-3.1c0,0,5.4-0.2,5.9,6.1C68.1,78.8,68.6,83.1,61.7,86.9z"/>
<path id="N" class="st3" d="M88,46.6h4.8l9.1,14.7h0.1V46.6h4.5v21.9h-4.8l-9.1-14.6h-0.1v14.6H88V46.6z"/>
<path id="y" class="st3" d="M118,70.5c-1,2.5-2.4,3.6-5.4,3.6c-0.9,0-1.8-0.1-2.7-0.2v-3.6c0.8,0.1,1.7,0.2,2.5,0.2
	c1.5-0.2,2-1.7,1.5-3l-5.6-14.8h4.7l3.6,10.8h0.1l3.5-10.8h4.5L118,70.5z"/>
<path id="t_1_" class="st3" d="M131.6,52.7h3.2v2.9h-3.2v7.8c0,1.5,0.4,1.8,1.8,1.8c0.5,0,0.9,0,1.3-0.1v3.4
	c-0.7,0.1-1.7,0.2-2.5,0.2c-2.7,0-5-0.6-5-3.8v-9.3h-2.6v-2.9h2.6v-4.7h4.3V52.7z"/>
<path id="_x26_" class="st3" d="M100.1,96.1c-1.7,1.7-3.7,2.6-6.2,2.6c-3.9,0-7.1-2.4-7.1-6.6c0-3.1,2.3-5.1,4.9-6.3
	c-1.2-1.4-2.1-2.8-2.1-4.7c0-3,2.8-5,5.7-5c3.3,0,6,1.8,6,5.2c0,2.5-1.7,4.3-3.9,5.4l2.8,3.5c0.4-0.8,0.7-1.7,0.8-2.6h3.8
	c-0.2,2-0.9,3.9-2.1,5.4l4.4,5.2h-5.3L100.1,96.1z M94.1,88.6c-1.5,0.7-3.1,1.8-3.1,3.6c0,1.6,1.5,2.9,3.1,2.9
	c1.6,0,2.7-0.8,3.7-1.9L94.1,88.6z M95.6,79.1c-1,0-2,0.8-2,1.9c0,1.4,0.9,2.3,1.7,3.3c1.2-0.8,2.2-1.5,2.2-3.1
	C97.6,80,96.7,79.1,95.6,79.1z"/>
<path id="S" class="st3" d="M120.7,91c0,2.9,2.3,4,4.8,4c1.7,0,4.3-0.5,4.3-2.7c0-2.4-3.3-2.8-6.5-3.6c-3.2-0.9-6.5-2.1-6.5-6.2
	c0-4.5,4.2-6.6,8.2-6.6c4.6,0,8.8,2,8.8,7h-4.7c-0.2-2.6-2-3.3-4.3-3.3c-1.5,0-3.3,0.6-3.3,2.5c0,1.7,1,1.9,6.5,3.3
	c1.6,0.4,6.5,1.4,6.5,6.4c0,4-3.2,7-9.1,7c-4.8,0-9.4-2.4-9.3-7.8H120.7z"/>
<path id="u" class="st3" d="M151.7,98.2h-4.1V96h-0.1c-1.1,1.8-3,2.6-4.8,2.6c-4.6,0-5.8-2.6-5.8-6.5v-9.7h4.3v8.9
	c0,2.6,0.8,3.9,2.8,3.9c2.4,0,3.4-1.3,3.4-4.5v-8.3h4.3V98.2z"/>
<path id="n" class="st3" d="M155,82.4h4.1v2.2h0.1c1.1-1.8,3-2.6,4.8-2.6c4.6,0,5.8,2.6,5.8,6.5v9.7h-4.3v-8.9
	c0-2.6-0.8-3.9-2.8-3.9c-2.4,0-3.4,1.3-3.4,4.5v8.3H155V82.4z"/>
<path id="d" class="st3" d="M184.5,96.2L184.5,96.2c-1.1,1.7-2.8,2.4-4.9,2.4c-4.8,0-7.1-4.1-7.1-8.5c0-4.3,2.4-8.2,7-8.2
	c1.9,0,3.7,0.8,4.7,2.4h0h0.1v-8h4.3v21.9h-4.1V96.2z M180.7,85.3c-2.8,0-3.8,2.4-3.8,5.1c0,2.5,1.1,5.1,3.8,5.1
	c2.9,0,3.7-2.5,3.7-5.1C184.4,87.7,183.5,85.3,180.7,85.3z"/>
<path id="t" class="st3" d="M197.4,82.4h3.2v2.9h-3.2v7.8c0,1.5,0.4,1.8,1.8,1.8c0.5,0,0.9,0,1.3-0.1v3.4c-0.7,0.1-1.7,0.2-2.5,0.2
	c-2.7,0-5-0.6-5-3.8v-9.3h-2.6v-2.9h2.6v-4.7h4.3V82.4z"/>
</svg>
