<?xml version="1.0" encoding="utf-8"?>
<!-- Generator: Adobe Illustrator 21.0.0, SVG Export Plug-In . SVG Version: 6.00 Build 0)  -->
<svg version="1.1" id="Layer_1" xmlns="http://www.w3.org/2000/svg" xmlns:xlink="http://www.w3.org/1999/xlink" x="0px" y="0px"
   viewBox="0 0 726.3 250.7" style="enable-background:new 0 0 726.3 250.7;" xml:space="preserve">
<style type="text/css">
  .st0{fill:#778c9c;}
  .st1{fill:#778c9c;}
</style>
<g>
  <g id="Sygeforsikring">
    <path class="st0" d="M240,233.7c0,6.1,4.5,8.5,10.1,8.5c6.1,0,8.4-3,8.4-6c0-3.1-1.7-4.3-3.3-4.9c-2.8-1.1-6.4-1.8-11.9-3.3
      c-6.8-1.8-8.8-6-8.8-10.1c0-8,7.4-11.7,14.6-11.7c8.3,0,15.3,4.4,15.3,12.7h-7c-0.3-5.1-3.8-7-8.6-7c-3.2,0-7.3,1.2-7.3,5.2
      c0,2.8,1.9,4.3,4.7,5.1c0.6,0.2,9.4,2.5,11.5,3.1c5.2,1.6,7.8,6,7.8,10.2c0,8.9-7.9,12.5-15.8,12.5c-9.1,0-16.5-4.3-16.6-14.2H240
      z"/>
    <path class="st0" d="M282.3,231.4l-14.9-24.2h8.1L286,225l10.4-17.8h7.8l-14.9,24.2V247h-7V231.4z"/>
    <path class="st0" d="M343.2,247h-4.5l-1.1-4.7c-3.7,4.2-7.1,5.6-12,5.6c-11.9,0-19.1-9.5-19.1-20.8c0-11.4,7.1-20.9,19.1-20.9
      c8.7,0,16,4.6,17.1,13.6H336c-0.7-5.2-5.2-7.9-10.3-7.9c-8.5,0-12.1,7.5-12.1,15.2c0,7.6,3.6,15.2,12.1,15.2
      c7.1,0.1,11-4.2,11.2-10.9h-10.6V226h17V247z"/>
    <path class="st0" d="M351.3,207.2h28.7v6h-21.7v10.4h20.1v5.7h-20.1V241h22.1v6h-29.1V207.2z"/>
    <path class="st0" d="M386.8,207.2h27.5v6h-20.5v10.4h18v5.7h-18V247h-7V207.2z"/>
    <path class="st0" d="M456.4,227.1c0,11.4-7.1,20.8-19.1,20.8c-11.9,0-19.1-9.5-19.1-20.8c0-11.4,7.1-20.9,19.1-20.9
      C449.3,206.2,456.4,215.7,456.4,227.1z M425.2,227.1c0,7.6,3.6,15.2,12.1,15.2c8.5,0,12.1-7.5,12.1-15.2c0-7.6-3.6-15.2-12.1-15.2
      C428.8,211.9,425.2,219.4,425.2,227.1z"/>
    <path class="st0" d="M463.1,207.2h19c8.7,0,13.2,4,13.2,10.8c0,7.6-5.3,9.6-6.6,10v0.1c2.4,0.3,5.9,2.1,5.9,8.4
      c0,4.6,0.7,8.9,2.2,10.5h-7.5c-1.1-1.7-1.1-3.9-1.1-5.9c0-7.3-1.5-10.5-7.9-10.5h-10.3V247h-7V207.2z M470.1,225.3h11.4
      c4.4,0,6.8-2.2,6.8-6.4c0-5.1-3.3-6.1-6.9-6.1h-11.3V225.3z"/>
    <path class="st0" d="M507.4,233.7c0,6.1,4.5,8.5,10.1,8.5c6.1,0,8.4-3,8.4-6c0-3.1-1.7-4.3-3.3-4.9c-2.8-1.1-6.4-1.8-11.9-3.3
      c-6.8-1.8-8.8-6-8.8-10.1c0-8,7.4-11.7,14.6-11.7c8.3,0,15.3,4.4,15.3,12.7h-7c-0.3-5.1-3.8-7-8.6-7c-3.2,0-7.3,1.2-7.3,5.2
      c0,2.8,1.9,4.3,4.7,5.1c0.6,0.2,9.4,2.5,11.5,3.1c5.2,1.6,7.8,6,7.8,10.2c0,8.9-7.9,12.5-15.8,12.5c-9.1,0-16.5-4.3-16.6-14.2
      H507.4z"/>
    <path class="st0" d="M539.4,207.2h7V247h-7V207.2z"/>
    <path class="st0" d="M555.4,207.2h7v18.1l17.7-18.1h8.6l-15.9,15.9l17,23.9h-8.7L568,228l-5.7,5.6V247h-7V207.2z"/>
    <path class="st0" d="M594,207.2h19c8.7,0,13.2,4,13.2,10.8c0,7.6-5.3,9.6-6.6,10v0.1c2.4,0.3,5.9,2.1,5.9,8.4
      c0,4.6,0.7,8.9,2.2,10.5h-7.5c-1.1-1.7-1.1-3.9-1.1-5.9c0-7.3-1.5-10.5-7.9-10.5h-10.3V247h-7V207.2z M600.9,225.3h11.4
      c4.4,0,6.8-2.2,6.8-6.4c0-5.1-3.3-6.1-6.9-6.1h-11.3V225.3z"/>
    <path class="st0" d="M633.6,207.2h7V247h-7V207.2z"/>
    <path class="st0" d="M649.3,207.2h7.4l18.2,29.3h0.1v-29.3h6.6V247h-7.4l-18.1-29.3h-0.2V247h-6.6V207.2z"/>
    <path class="st0" d="M725,247h-4.4l-1.1-4.7c-3.7,4.2-7.1,5.6-12,5.6c-11.9,0-19.1-9.5-19.1-20.8c0-11.4,7.1-20.9,19.1-20.9
      c8.7,0,16,4.6,17.1,13.6h-6.8c-0.7-5.2-5.2-7.9-10.3-7.9c-8.5,0-12.1,7.5-12.1,15.2c0,7.6,3.6,15.2,12.1,15.2
      c7.1,0.1,11-4.2,11.2-10.9h-10.6V226H725V247z"/>
  </g>
  <g id="danmark">
    <path class="st0" d="M275.2,178.4H275c-3.8,6.5-10.6,9.3-18.3,9.3c-18.2,0-27.1-15.6-27.1-32.3c0-16.2,9-31.2,26.7-31.2
      c7.1,0,14.1,3,18,9h-0.1h0.2v-30.3H291v83.3h-15.7V178.4z M260.8,136.7c-10.8,0-14.6,9.3-14.6,19.2c0,9.4,4.3,19.3,14.6,19.3
      c11,0,14.2-9.6,14.2-19.5C275,146,271.5,136.7,260.8,136.7z"/>
    <path class="st0" d="M304,144.4c0.9-15.5,14.8-20.2,28.3-20.2c12,0,26.5,2.7,26.5,17.1v31.4c0,5.5,0.6,11,2.1,13.4h-16.8
      c-0.6-1.9-1-3.8-1.2-5.8c-5.2,5.5-12.9,7.5-20.3,7.5c-11.4,0-20.5-5.7-20.5-18.1c0-13.6,10.3-16.9,20.5-18.3
      c10.1-1.5,19.6-1.2,19.6-7.9c0-7.1-4.9-8.2-10.7-8.2c-6.3,0-10.4,2.6-11,9.1H304z M342.3,156.6c-2.8,2.4-8.6,2.6-13.8,3.5
      c-5.1,1-9.8,2.8-9.8,8.9c0,6.2,4.8,7.7,10.1,7.7c12.9,0,13.4-10.3,13.4-13.9V156.6z"/>
    <path class="st0" d="M373,125.9h15.7v8.4h0.4c4.2-6.8,11.4-10,18.4-10c17.6,0,22,9.9,22,24.8v37.1h-16.6v-34
      c0-9.9-2.9-14.8-10.6-14.8c-9,0-12.8,5-12.8,17.3v31.6H373V125.9z"/>
    <path class="st0" d="M443.9,125.9h15.6v8.2h0.2c4.3-6.2,10.6-9.8,18.4-9.8c7.6,0,14.3,2.8,17.6,10c3.5-5.3,9.8-10,18.2-10
      c12.8,0,22,5.9,22,21.6v40.3h-16.6V152c0-8.1-0.7-14.7-10.1-14.7c-9.3,0-11.1,7.7-11.1,15.3v33.6h-16.6v-33.8c0-7,0.5-15-10-15
      c-3.3,0-11.2,2.1-11.2,13.9v35h-16.6V125.9z"/>
    <path class="st0" d="M549.6,144.4c0.9-15.5,14.8-20.2,28.3-20.2c12,0,26.5,2.7,26.5,17.1v31.4c0,5.5,0.6,11,2.1,13.4h-16.8
      c-0.6-1.9-1-3.8-1.2-5.8c-5.2,5.5-12.9,7.5-20.3,7.5c-11.4,0-20.5-5.7-20.5-18.1c0-13.6,10.3-16.9,20.5-18.3
      c10.1-1.5,19.6-1.2,19.6-7.9c0-7.1-4.9-8.2-10.7-8.2c-6.3,0-10.4,2.6-11,9.1H549.6z M587.9,156.6c-2.8,2.4-8.6,2.6-13.8,3.5
      c-5.1,1-9.8,2.8-9.8,8.9c0,6.2,4.8,7.7,10.1,7.7c12.9,0,13.4-10.3,13.4-13.9V156.6z"/>
    <path class="st0" d="M618.6,125.9h15.7v11.2h0.2c3-7.6,11.2-12.8,19.2-12.8c1.2,0,2.6,0.2,3.6,0.6v15.4c-1.5-0.4-4-0.6-5.9-0.6
      c-12.1,0-16.3,8.7-16.3,19.4v27.2h-16.6V125.9z"/>
    <path class="st0" d="M666.7,102.9h16.6v44.7l20.9-21.7h19.6L701,148l25.3,38.1h-20.1l-16.6-26.9l-6.4,6.2v20.8h-16.6V102.9z"/>
  </g>
  <g>
    <path class="st1" d="M128.4,0v77.2c-11.5-5.2-24.2-8.2-37.7-8.2C40.6,69.1-0.1,109.9,0,160c0.1,50,40.8,90.7,90.8,90.7H91
      c13.1,0,25.8-2.8,37.4-8.1v5.9h63.1V0H128.4z M118.4,189.3c0,0-17.4,10.7-22.9,20.5c-5.6-9.8-23-20.5-23-20.5
      c-31.4-17.1-29.2-37.2-29.2-37.2c2-28.7,26.7-27.9,26.7-27.9c17.2,0,25.2,14,25.2,14h0.4c0,0,8-14,25.2-14.1
      c0,0,24.7-0.9,26.8,27.8C147.6,152,150.1,171.9,118.4,189.3z"/>
  </g>
</g>
</svg>
