<?xml version="1.0" encoding="utf-8"?>
<!-- Generator: Adobe Illustrator 21.0.2, SVG Export Plug-In . SVG Version: 6.00 Build 0)  -->
<svg version="1.1" id="Layer_1" xmlns="http://www.w3.org/2000/svg" xmlns:xlink="http://www.w3.org/1999/xlink" x="0px" y="0px"
	 viewBox="0 0 137 30" style="enable-background:new 0 0 137 30;" xml:space="preserve">
<style type="text/css">
	.st0{fill:#05111F;}
	.st1{clip-path:url(#SVGID_2_);fill:#05111F;}
</style>
<path class="st0" d="M102.1,28.6c0,0.7,0.5,1.1,1.1,1.1s1.1-0.4,1.1-1.1V1.3c0-0.7-0.5-1.1-1.1-1.1s-1.1,0.4-1.1,1.1V28.6"/>
<path class="st0" d="M121.2,0.4h-6.7c-1.7,0-2.6,0.9-2.6,2.8v23.5c0,1.9,0.8,2.8,2.6,2.8h6.3c9.5,0,15.3-6.1,15.3-14.8
	C136.1,6,130.5,0.4,121.2,0.4 M121.1,27.4h-5.9c-0.8,0-1.1-0.3-1.1-1.2V3.7c0-0.9,0.2-1.2,1.1-1.2h5.6c8.9,0,13.1,5.2,13.1,12.5
	C133.8,22.4,129.2,27.4,121.1,27.4z"/>
<path class="st0" d="M2.1,3.7c0-0.7,0.2-0.9,0.5-0.9s0.5,0.5,0.7,0.6l16.1,24.4c0.4,0.5,1,1.5,2.5,1.5c1.6,0,2.4-1.1,2.4-2.8V1.4
	c0-0.7-0.5-1.1-1-1.1c-0.5,0-1,0.4-1,1.1v24.8c0,0.7-0.2,0.9-0.5,0.9s-0.5-0.5-0.7-0.6L4.9,2.1c-0.4-0.5-1-1.5-2.5-1.5
	C0.8,0.6,0,1.7,0,3.4v25.2c0,0.7,0.5,1.1,1,1.1c0.5,0,1-0.4,1-1.1V3.7"/>
<path class="st0" d="M54.4,28.6c0,0.7,0.5,1.1,1,1.1s1-0.4,1-1.1V3.5c0-0.7,0.2-0.9,0.5-0.9c0.3,0,0.6,0.5,0.7,0.6l9,12.6
	c0.2,0.4,0.5,0.5,0.9,0.5c0.4,0,0.7-0.2,0.9-0.5l9.1-12.6c0.1-0.2,0.4-0.6,0.7-0.6s0.5,0.2,0.5,0.9v25.1c0,0.7,0.5,1.1,1,1.1
	s1-0.4,1-1.1V3.1c0-1.7-0.8-2.7-2.4-2.7c-1.5,0-2,0.8-2.5,1.5l-8.3,11.8L59.2,1.9c-0.4-0.6-1-1.5-2.5-1.5c-1.6,0-2.4,1.1-2.4,2.8
	V28.6"/>
<g>
	<defs>
		<rect id="SVGID_1_" y="0.2" width="136.1" height="29.7"/>
	</defs>
	<clipPath id="SVGID_2_">
		<use xlink:href="#SVGID_1_"  style="overflow:visible;"/>
	</clipPath>
	<path class="st1" d="M41,14.2c0.4,0.4,1.1,0.4,1.5,0c0.4-0.4,0.3-1.1-0.1-1.5L34.2,4c-0.5-0.5-0.6-0.7-0.6-1s0.2-0.5,0.7-0.5h12.7
		c0.7,0,1.1-0.5,1.1-1c0-0.5-0.4-1-1.1-1H33.6c-1.5,0-2.5,0.7-2.5,2c0,1.2,0.9,2.2,1.6,3L41,14.2"/>
	<path class="st1" d="M49.4,25.5c0.4-0.6,0.2-1.2-0.3-1.5c-0.5-0.3-1.1-0.2-1.5,0.4c-0.5,0.6-2.6,3.6-7.4,3.6
		c-3.7,0-7.8-2.2-7.8-6.9c0-4.2,4.1-6,4.8-6.3c0.7-0.3,0.8-0.9,0.6-1.4c-0.3-0.5-0.8-0.7-1.5-0.4c-1.1,0.4-6.1,2.6-6.1,8.3
		c0,5.5,4.4,8.9,9.7,8.9C44.8,30,48.1,27.7,49.4,25.5"/>
</g>
</svg>
