<?xml version="1.0" encoding="utf-8"?>
<!-- Generator: Adobe Illustrator 21.0.2, SVG Export Plug-In . SVG Version: 6.00 Build 0)  -->
<svg version="1.1" height="433.9" width="328" id="Layer_1" xmlns="http://www.w3.org/2000/svg" xmlns:xlink="http://www.w3.org/1999/xlink" x="0px" y="0px"
	 viewBox="0 0 326.2 433.9" style="enable-background:new 0 0 326.2 433.9;" xml:space="preserve">
<style type="text/css">
	.st0{fill:#1A1A1A;}
</style>
<g>
	<path class="st0" d="M287.7,183.2H38.5C17.2,183.2,0,200.4,0,221.7v173.8c0,21.2,17.2,38.5,38.5,38.5h249.3
		c21.2,0,38.5-17.2,38.5-38.5V221.7C326.2,200.4,308.9,183.2,287.7,183.2z M194.2,357.6h-62.3l16.7-34.7
		c-11.2-5.4-18.9-16.8-18.9-30c0-18.4,14.9-33.3,33.3-33.3s33.3,14.9,33.3,33.3c0,13.2-7.7,24.7-18.9,30L194.2,357.6z"/>
	<path class="st0" d="M166.3,25c-53.8,0-97.6,43.8-97.6,97.6V164h-25v-41.5C43.8,55,98.7,0,166.3,0"/>
	<path class="st0" d="M159.6,24.6c53.8,0,97.6,43.8,97.6,97.6v41.5h25v-41.5c0-67.6-55-122.6-122.6-122.6"/>
</g>
</svg>
