<?xml version="1.0" encoding="utf-8"?>
<!-- Generator: Adobe Illustrator 21.0.0, SVG Export Plug-In . SVG Version: 6.00 Build 0)  -->
<svg version="1.1" id="Lag_1" xmlns="http://www.w3.org/2000/svg" xmlns:xlink="http://www.w3.org/1999/xlink" x="0px" y="0px"
	 viewBox="0 0 230 146.6" style="enable-background:new 0 0 230 146.6;" xml:space="preserve">
<style type="text/css">
	.st0{fill:url(#Boks_1_);}
	.st1{fill:#FFFFFF;}
	.st2{fill:#020203;}
	.st3{fill:none;}
</style>
<g>
	
		<linearGradient id="Boks_1_" gradientUnits="userSpaceOnUse" x1="115" y1="148" x2="115" y2="1.4" gradientTransform="matrix(1 0 0 -1 0 148)">
		<stop  offset="0" style="stop-color:#FA0C15"/>
		<stop  offset="0.3658" style="stop-color:#F80F18"/>
		<stop  offset="0.7568" style="stop-color:#DC171F"/>
		<stop  offset="1" style="stop-color:#DC1C25"/>
	</linearGradient>
	<path id="Boks" class="st0" d="M0,0.4v141.2c0,2.8,2.2,5,5,5h220c2.8,0,5-2.2,5-5V0C194.1,0.2,109.3,0.2,0,0.4z"/>
	<g>
		<path class="st1" d="M77,47.6V63c-2.4-1.1-5-1.7-7.7-1.7c-12.2,0-21.8,11.9-17.7,24.7c2.4,7.7,9.7,12.7,17.7,12.7l0,0
			c2.7,0,5.3-0.6,7.7-1.7v1.7h13v-51L77,47.6L77,47.6z M74.7,86.1c0,0-3.6,2.2-4.7,4.2c-1.1-2-4.7-4.2-4.7-4.2c-6.5-3.5-6-7.6-6-7.6
			c0.4-5.9,5.5-5.7,5.5-5.7c3.5,0,5.2,2.9,5.2,2.9l0,0c0,0,1.6-2.9,5.2-2.9c0,0,5.1-0.2,5.5,5.7C80.7,78.5,81.2,82.6,74.7,86.1z"/>
		<g>
			<path class="st2" d="M96,68.6h9l9.9,19h0.1v-19h7v30h-8.2l-10.7-19H103v19h-7V68.6z"/>
			<path class="st2" d="M143,87.5v11.2h-8V87.5l-11.2-18.8h9.1l6.1,12.2l6.1-12.2h9.1L143,87.5z"/>
			<path class="st2" d="M180,75.6h-9v23h-8v-23h-9v-7h26V75.6z"/>
		</g>
	</g>
</g>
<line class="st3" x1="19.3" y1="161.9" x2="22.6" y2="165.5"/>
</svg>
