<?xml version="1.0" encoding="UTF-8"?>
<svg width="26px" height="25px" viewBox="0 0 26 25" version="1.1" xmlns="http://www.w3.org/2000/svg" xmlns:xlink="http://www.w3.org/1999/xlink">
    <defs></defs>
    <g id="Web-Design" stroke="none" stroke-width="1" fill="none" fill-rule="evenodd">
        <g id="who-we-are-hover" transform="translate(-561.000000, -3413.000000)" fill-rule="nonzero" fill="#C6C3C3">
            <g id="social-media" transform="translate(345.000000, 3413.000000)">
                <g id="instagram" transform="translate(216.000000, 0.000000)">
                    <path d="M24.3918919,4.31467181 C24.0733591,3.49420849 23.6486486,2.7992278 22.953668,2.1042471 C22.2586873,1.40926641 21.5637066,0.984555985 20.7432432,0.666023166 C19.9517375,0.357142857 19.034749,0.144787645 17.7123552,0.0868725869 C16.3803089,0.028957529 15.9555985,0.00965250965 12.5579151,0.00965250965 C9.16023166,0.00965250965 8.73552124,0.0193050193 7.4034749,0.0868725869 C6.07142857,0.144787645 5.16409266,0.357142857 4.37258687,0.666023166 C3.55212355,0.984555985 2.85714286,1.40926641 2.16216216,2.1042471 C1.46718147,2.7992278 1.04247104,3.49420849 0.723938224,4.31467181 C0.415057915,5.10617761 0.202702703,6.02316602 0.144787645,7.34555985 C0.0868725869,8.67760618 0.0675675676,9.1023166 0.0675675676,12.5 C0.0675675676,15.8976834 0.0772200772,16.3223938 0.144787645,17.6544402 C0.202702703,18.9864865 0.415057915,19.8938224 0.723938224,20.6853282 C1.04247104,21.5057915 1.46718147,22.2007722 2.16216216,22.8957529 C2.85714286,23.5907336 3.55212355,24.015444 4.37258687,24.3339768 C5.16409266,24.6428571 6.08108108,24.8552124 7.4034749,24.9131274 C8.73552124,24.9710425 9.16023166,24.9903475 12.5579151,24.9903475 C15.9555985,24.9903475 16.3803089,24.980695 17.7123552,24.9131274 C19.0444015,24.8552124 19.9517375,24.6428571 20.7432432,24.3339768 C21.5637066,24.015444 22.2586873,23.5907336 22.953668,22.8957529 C23.6486486,22.2007722 24.0733591,21.5057915 24.3918919,20.6853282 C24.7007722,19.8938224 24.9131274,18.976834 24.9710425,17.6544402 C25.0289575,16.3223938 25.0482625,15.8976834 25.0482625,12.5 C25.0482625,9.1023166 25.03861,8.67760618 24.9710425,7.34555985 C24.9131274,6.01351351 24.7007722,5.10617761 24.3918919,4.31467181 Z M22.7220077,17.5482625 C22.6640927,18.7644788 22.46139,19.4305019 22.2876448,19.8648649 C22.0656371,20.4440154 21.7857143,20.8687259 21.3513514,21.3030888 C20.9169884,21.7374517 20.5019305,22.007722 19.9131274,22.2393822 C19.469112,22.4131274 18.8127413,22.6158301 17.5965251,22.6737452 C16.2741313,22.7316602 15.8880309,22.7509653 12.5482625,22.7509653 C9.20849421,22.7509653 8.81274131,22.7413127 7.5,22.6737452 C6.28378378,22.6158301 5.61776062,22.4131274 5.18339768,22.2393822 C4.6042471,22.0173745 4.17953668,21.7374517 3.74517375,21.3030888 C3.31081081,20.8687259 3.04054054,20.453668 2.80888031,19.8648649 C2.63513514,19.4208494 2.43243243,18.7644788 2.37451737,17.5482625 C2.31660232,16.2258687 2.2972973,15.8301158 2.2972973,12.5 C2.2972973,9.16988417 2.30694981,8.76447876 2.37451737,7.45173745 C2.43243243,6.23552124 2.63513514,5.56949807 2.80888031,5.13513514 C3.03088803,4.55598456 3.31081081,4.13127413 3.74517375,3.6969112 C4.17953668,3.26254826 4.59459459,2.99227799 5.18339768,2.76061776 C5.62741313,2.58687259 6.28378378,2.38416988 7.5,2.32625483 C8.82239382,2.26833977 9.21814672,2.24903475 12.5482625,2.24903475 C15.8783784,2.24903475 16.2837838,2.25868726 17.5965251,2.32625483 C18.8127413,2.38416988 19.4787645,2.58687259 19.9131274,2.76061776 C20.492278,2.98262548 20.9169884,3.26254826 21.3513514,3.6969112 C21.7857143,4.13127413 22.0559846,4.54633205 22.2876448,5.13513514 C22.46139,5.57915058 22.6640927,6.23552124 22.7220077,7.45173745 C22.7799228,8.77413127 22.7992278,9.16988417 22.7992278,12.5 C22.7992278,15.8301158 22.7799228,16.2355212 22.7220077,17.5482625 Z" id="XMLID_142_"></path>
                    <path d="M12.5482625,6.08108108 C9.00579151,6.08108108 6.12934363,8.95752896 6.12934363,12.5 C6.12934363,16.042471 9.00579151,18.9189189 12.5482625,18.9189189 C16.0907336,18.9189189 18.9671815,16.042471 18.9671815,12.5 C18.9671815,8.95752896 16.0907336,6.08108108 12.5482625,6.08108108 Z M12.5482625,16.6698842 C10.2509653,16.6698842 8.37837838,14.8069498 8.37837838,12.5 C8.37837838,10.2027027 10.2413127,8.33011583 12.5482625,8.33011583 C14.8552124,8.33011583 16.7181467,10.1930502 16.7181467,12.5 C16.7181467,14.7972973 14.8455598,16.6698842 12.5482625,16.6698842 Z" id="XMLID_145_"></path>
                    <circle id="XMLID_143_" cx="19.2181467" cy="5.83011583" r="1.496139"></circle>
                </g>
            </g>
        </g>
    </g>
</svg>