<?xml version="1.0" encoding="UTF-8"?>
<svg width="20px" height="20px" viewBox="0 0 20 20" version="1.1" xmlns="http://www.w3.org/2000/svg" xmlns:xlink="http://www.w3.org/1999/xlink">
    <defs></defs>
    <g id="Web-Design" stroke="none" stroke-width="1" fill="none" fill-rule="evenodd">
        <g id="who-we-are-hover" transform="translate(-442.000000, -3416.000000)" fill-rule="nonzero" fill="#C6C3C3">
            <g id="social-media" transform="translate(345.000000, 3413.000000)">
                <g id="linkedin" transform="translate(97.000000, 3.000000)">
                    <path d="M0.323076923,6.61538462 L4.46153846,6.61538462 L4.46153846,19.9230769 L0.323076923,19.9230769 L0.323076923,6.61538462 Z M2.4,0 C3.72307692,0 4.8,1.07692308 4.8,2.4 C4.8,3.72307692 3.72307692,4.8 2.4,4.8 C1.06923077,4.8 0,3.72307692 0,2.4 C0,1.07692308 1.06923077,0 2.4,0 L2.4,0 Z" id="XMLID_195_"></path>
                    <path d="M7.07692308,6.63076923 L11.0384615,6.63076923 L11.0384615,8.45384615 L11.0923077,8.45384615 C11.6461538,7.40769231 12.9923077,6.30769231 15.0076923,6.30769231 C19.1923077,6.30769231 19.9692308,9.06153846 19.9692308,12.6461538 L19.9692308,19.9384615 L15.8384615,19.9384615 L15.8384615,13.4692308 C15.8384615,11.9230769 15.8153846,9.93846154 13.6923077,9.93846154 C11.5384615,9.93846154 11.2153846,11.6230769 11.2153846,13.3538462 L11.2153846,19.9384615 L7.08461538,19.9384615 L7.08461538,6.63076923 L7.07692308,6.63076923 Z" id="XMLID_192_"></path>
                </g>
            </g>
        </g>
    </g>
</svg>