<?xml version="1.0" encoding="UTF-8"?>
<svg width="25px" height="20px" viewBox="0 0 25 20" version="1.1" xmlns="http://www.w3.org/2000/svg" xmlns:xlink="http://www.w3.org/1999/xlink">
    <defs></defs>
    <g id="Web-Design" stroke="none" stroke-width="1" fill="none" fill-rule="evenodd">
        <g id="who-we-are-hover" transform="translate(-654.000000, -3416.000000)" fill-rule="nonzero" fill="#C6C3C3">
            <g id="social-media" transform="translate(345.000000, 3413.000000)">
                <g id="twitter" transform="translate(309.000000, 3.000000)">
                    <path d="M7.76153846,20 C17.0153846,20 22.0769231,12.3307692 22.0769231,5.68461538 C22.0769231,5.46923077 22.0769231,5.25384615 22.0615385,5.03076923 C23.0461538,4.31538462 23.8923077,3.43846154 24.5692308,2.42307692 C23.6538462,2.83076923 22.6769231,3.1 21.6769231,3.21538462 C22.7307692,2.58461538 23.5153846,1.6 23.8923077,0.430769231 C22.9076923,1.01538462 21.8230769,1.43076923 20.7,1.65384615 C18.7923077,-0.369230769 15.6076923,-0.469230769 13.5846154,1.43846154 C12.2769231,2.66923077 11.7230769,4.5 12.1307692,6.24615385 C8.08461538,6.04615385 4.31538462,4.13076923 1.76153846,0.992307692 C0.423076923,3.29230769 1.10769231,6.23076923 3.31538462,7.70769231 C2.51538462,7.68461538 1.73076923,7.46923077 1.03076923,7.07692308 L1.03076923,7.13846154 C1.03076923,9.53076923 2.72307692,11.5923077 5.06923077,12.0692308 C4.33076923,12.2692308 3.55384615,12.3 2.8,12.1538462 C3.46153846,14.2 5.34615385,15.6076923 7.5,15.6461538 C5.71538462,17.0461538 3.51538462,17.8076923 1.25384615,17.8076923 C0.853846154,17.8076923 0.453846154,17.7846154 0.0538461538,17.7384615 C2.34615385,19.2153846 5.02307692,20 7.76153846,20" id="XMLID_22_"></path>
                </g>
            </g>
        </g>
    </g>
</svg>